<?xml version="1.0" encoding="utf-8"?>
<!-- Generator: Adobe Illustrator 22.1.0, SVG Export Plug-In . SVG Version: 6.00 Build 0)  -->
<svg version="1.1" xmlns="http://www.w3.org/2000/svg" xmlns:xlink="http://www.w3.org/1999/xlink" x="0px" y="0px"
	 viewBox="0 0 2272 1872" style="enable-background:new 0 0 2272 1872;" xml:space="preserve">
<style type="text/css">
	.st0{fill:#F5F6FA;}
	.st1{fill:#DBE8D2;}
	.st2{fill:#194657;}
	.st3{fill:#14353F;}
	.st4{fill:#68698C;}
	.st5{fill:#8889C2;}
	.st6{fill:#E57295;}
	.st7{fill:#DEF2FA;}
	.st8{fill:#1F1F3A;}
	.st9{fill:#2A284F;}
	.st10{fill:#62648C;}
	.st11{fill:#EC5946;}
	.st12{fill:#9B3930;}
</style>
<g id="Background">
	<g>
		<g>
			<rect x="0" class="st0" width="2272" height="1872"/>
		</g>
	</g>
</g>
<g id="object">
	<g>
		<path class="st1" d="M2182,1471H145.2c-14.7,0-26.7,11.9-26.7,26.7c0,14.7,11.9,26.7,26.7,26.7H2182c14.7,0,26.7-11.9,26.7-26.7
			C2208.6,1482.9,2196.7,1471,2182,1471z"/>
		<g>
			<g>
				<path class="st2" d="M552.9,1066.7v-94.4c0-15.1,12.3-27.4,27.4-27.5c183.1-0.6,298.1-0.6,307.4,0c-0.1,0-1.2-0.1-2.7-0.4
					c5-21.2-11-41.5-32.7-41.6c-39.4-0.2-117.1-0.2-272.1,0.3c-38,0.1-68.9,31.1-68.9,69.1v94.4c0,38.2,31,69.2,69.2,69.2h301.4
					v-41.7H580.4C565.2,1094.2,552.9,1081.9,552.9,1066.7z"/>
				<path class="st3" d="M235.4,1073.5v34.7c0,34.4,43.4,62.2,96.8,62.2h385.3c53.5,0,96.8-27.9,96.8-62.2v-34.7H235.4z"/>
				<g>
					<g>
						<path class="st4" d="M511.4,561.7H234.8c-36.1,0-65.4,29.3-65.4,65.4v391.1c0,36.1,29.3,65.4,65.4,65.4h276.6
							c36.1,0,65.4-29.3,65.4-65.4V627.1C576.9,591,547.6,561.7,511.4,561.7z"/>
						<path class="st5" d="M542.1,561.7H265.5c-36.1,0-65.4,29.3-65.4,65.4v391.1c0,36.1,29.3,65.4,65.4,65.4h276.6
							c36.1,0,65.4-29.3,65.4-65.4V627.1C607.6,591,578.3,561.7,542.1,561.7z"/>
					</g>
					<path class="st5" d="M872,1050.2H223.3c-12.9,0-23.3,10.4-23.3,23.3v0c0,12.9,10.4,23.3,23.3,23.3H872
						c12.9,0,23.3-10.4,23.3-23.3v0C895.3,1060.7,884.9,1050.2,872,1050.2z"/>
					<path class="st4" d="M495.8,1073.5L495.8,1073.5c0-12.9,10.4-23.3,23.3-23.3H223.3c-12.9,0-23.3,10.4-23.3,23.3v0
						c0,12.9,10.4,23.3,23.3,23.3h295.7C506.2,1096.8,495.8,1086.4,495.8,1073.5z"/>
				</g>
				<path class="st2" d="M190.2,1066.7v-94.4c0-15.1,12.3-27.4,27.4-27.5c183.1-0.6,298.1-0.6,307.4,0c-0.1,0-1.2-0.1-2.7-0.4
					c5-21.2-11-41.5-32.7-41.6c-39.4-0.2-117.1-0.2-272.1,0.3c-38,0.1-68.9,31.1-68.9,69.1v94.4c0,38.2,31,69.2,69.2,69.2h301.4
					v-41.7H217.7C202.5,1094.2,190.2,1081.9,190.2,1066.7z"/>
				<rect x="493.5" y="1135.9" class="st3" width="30.7" height="335.1"/>
				<path class="st3" d="M608.8,1440.5H400.9c-8.4,0-15.3,6.8-15.3,15.3c0,8.4,6.8,15.3,15.3,15.3h207.9c8.4,0,15.3-6.8,15.3-15.3
					C624.1,1447.3,617.3,1440.5,608.8,1440.5z"/>
			</g>
			<g>
				<g>
					<path class="st6" d="M957,643.7c9.4-5.6,20.4-10.7,31.1-8.3c2.2,4.6-2.7,9.3-7.1,12c-10.5,6.6-21,13.2-31.4,19.8
						c-1.3,0.8-2.7,1.7-3.3,3.1c-2,4.1,3,7.9,6.1,11.2c6.8,7.4,4.7,20-1.9,27.6c-6.6,7.6-16.4,11.6-25.8,15.3
						c-3.4,1.3-7,2.7-10.5,1.8c-16.2-4.2-14.3-29.8-7.9-40.1C917,668.8,939.9,654,957,643.7z"/>
					<path class="st0" d="M720.7,537.3c0,0,69.4,168.6,91.1,183.3c21.7,14.7,95.9-41.3,95.9-41.3l17.1,51.6
						c0,0-157.3,101.6-168.1,86.1c-10.8-15.5-63.5-115.2-63.5-115.2S693.7,546.6,720.7,537.3z"/>
					<path class="st7" d="M804.3,756.4c-6.6,2.5-13.7,4.9-20.7,3.6c-6.2-1.2-11.4-5.2-16.1-9.4c-8.8-7.8-16.8-16.5-23.7-26
						c-5.8-8-11.6-17-21-20.1c-8.5-2.7-17.8,0.5-24.7,6.2c13.2,24.9,49.9,93.4,58.7,106.1c10.8,15.5,168.1-86.1,168.1-86.1l-7.6-23
						C880.4,725.8,842.7,742.1,804.3,756.4z"/>
					<path class="st8" d="M745.6,956c18.3-11.2,353.5,88.9,379.4,127.6c26,38.7,77.2,358.7,77.2,358.7l-30.6-2.5l-144.7-304
						L814.4,1067C814.4,1067,532.9,1086.4,745.6,956z"/>
					<path class="st9" d="M504.9,1019.3c0,0,74.9,74.7,171.2,116.6s201.8,55.9,201.8,55.9s22,141.2,136.5,236.9h35.8l-85.1-345
						l-232.5-83l13.1-44.6l-102.9-40.7C642.8,915.4,476.6,905.1,504.9,1019.3z"/>
					<path class="st5" d="M720.7,537.3c0,0-209.9-38.1-297.5,25.6L492.4,968L745.6,956C745.6,956,753.9,640.5,720.7,537.3z"/>
					<path class="st10" d="M567.1,665.3c-2.2-46.3-4.1-92.5-5.7-138.8c-51.5,2.2-104.1,11.6-138.1,36.3L492.4,968l129.4-6.1
						c-14.4-31-25.1-63.9-32.7-97.2C574.2,799.4,570.3,732.2,567.1,665.3z"/>
					<path class="st0" d="M606.7,520.5c0,0,74.7,411,120.6,438.6s371.1,118.8,410.9,159c0,0-1.9-41.1-38-67.8
						S762.8,933.6,759.7,932.9c-3-0.8-14.3-365.8-39-395.6C720.7,537.3,624.2,520.7,606.7,520.5z"/>
					<path class="st7" d="M697.6,618.6c-2.1-6.4-46-18.2-46-18.2s30.5-7.3,35.4-10.9c3.7-2.6-7-40.4-12.8-59.9
						c-27.3-4.4-58.3-9-67.5-9.1c0,0,29.6,162.5,62.9,290C678.1,757.4,699.3,623.7,697.6,618.6z"/>
					<path class="st0" d="M538.5,526c0,0,29.2,447.3,73.7,462.7c44.5,15.4,249.9,146.5,265.7,203l-294.7,9c0,0-36.7-109-88-150.5
						C456,1018.5,384.3,669.1,415.1,567C424.5,536,479.1,519.5,538.5,526z"/>
					<path class="st7" d="M459.9,761.6c5.8-12.5,11.7-25.1,14.3-38.7c4.4-23.7-2.5-49.3-18.2-67.6c-2.1-2.5-4.6-4.9-7.7-5.9
						c-5.2-1.6-10.7,1.5-15.2,4.5c-8.5,5.7-16.6,12-24.4,18.8c2.4,44.3,8.7,95,17.2,144.7c2.3-2.4,4.4-4.8,6.5-7.4
						C444,795.5,452,778.5,459.9,761.6z"/>
					<path class="st7" d="M493.1,992.1c3.4-7.9,5.6-16.5,5.1-25c-0.9-14.7-9.6-28-20.4-38c-10.4-9.7-22.8-16.9-34.6-24.8
						c10.1,44,21.2,82.8,31.7,109.7C483.1,1009.7,489.3,1000.9,493.1,992.1z"/>
				</g>
				<g>
					<path class="st9" d="M502,403.6c2.7-6.1,9.9-12.3,6.1-17.8c-1.2-1.7-3.3-2.8-4.1-4.7c-1.9-4.3,3.9-8,8.6-8.5
						c7.6-0.9,15.4,0.7,22.2,4.3c-0.6-5.4-3.5-10.5-7.8-13.9c9.2-3.5,20-2.3,28.2,3.1c-0.8-3.9-2.5-7.6-4.8-10.8
						c10-1.3,20.6,2,28,8.9c1.9-4.5,0.6-10.2-3.1-13.4c15.9,2.3,28.6,15.3,35.7,29.7c9.2,18.9,10,43.6-3.7,59.6
						c-11.8,13.7-51.2,30-68.4,19.2c-7.9-4.9-11.2-16.1-17.6-22.7C512.8,428,495.5,418.2,502,403.6z"/>
					<path class="st6" d="M615.7,396.9c0,0,16.5,81.7-4.6,85.7l-13.1-0.7l8.1,58.7c0,0-36.3,10.7-56.5,1.6l-1.7-66.5
						c0,0-15.1-10.5-15.9-24.4c-0.8-13.9,9.8-6.2,17.5-5.3l4.6,14.1l7.3-7.1c0,0-2.7-31.3-3.7-33c-1-1.8,18.9-9.4,18.9-9.4
						S603.2,411.6,615.7,396.9z"/>
					<path class="st9" d="M584.7,492.9c-4.2-2.9-7.3-7.7-7.7-12.9c5.4,0.4,10.7,0.8,16.1,1.2c1.6,0.1,3.3,0.3,4.8,0.9
						c0,0,0.1,0,0.1,0.1l2.1,15c-0.3,0-0.7,0.1-1,0.1C593.9,497,588.9,495.8,584.7,492.9z"/>
				</g>
				<path class="st6" d="M476.3,957.3c0.3,3.2,0,6.5,0.8,9.6c0.8,3.3,2.7,6.2,4.6,9c1.9,2.8,4,5.7,7.1,6.8c4,1.5,8.6-0.4,11.5-3.5
					c2.9-3.1,4.2-7.3,5.2-11.5c2-8.2,2.6-16.7,2-25c-0.3-4-1-8.3-3.5-11.5c-1.9-2.5-4.7-4.2-7.5-5.7c-4.2-2.3-8.4-4.4-12.7-6.3
					c-4.4-2-9-3.8-13.9-3.9C436.8,914.8,475.3,947.3,476.3,957.3z"/>
				<path class="st0" d="M469.5,575c-11.5-26.3-48-28.7-62.9-4.1C353,659.7,230.2,870.5,261.8,889.7c40.1,24.4,205,62.2,205,62.2
					l15.1-38.1l-113-90.6l118-145.3C486.9,677.9,488.9,619.2,469.5,575z"/>
				<path class="st9" d="M1198.8,1434.8c0,0,60,24.3,83.5,48c0,0-108.9-0.7-111.7-8.8c-2.8-8.1,1.1-34.1,1.1-34.1
					S1191.6,1434.8,1198.8,1434.8z"/>
				<path class="st9" d="M1048.9,1423.6c0,0,52.6,35.5,76.1,59.2c0,0-108.9-0.7-111.7-8.8c-2.8-8.1,1.1-45.4,1.1-45.4
					S1038.2,1416.4,1048.9,1423.6z"/>
				<path class="st7" d="M459,572.2c-1.5,1.8-3.1,3.9-2.8,6.3c0.3,2.5,2.6,4.1,4.7,5.5c8.1,5.3,16.3,10.6,24.4,16
					c1.8,1.2,3.8,2.6,4.3,4.8c0.6,2.9-1.9,5.5-4.2,7.4c-9.7,8.1-19.4,16.2-29.1,24.3c40.9,62.9,82.4,127.2,112.5,195.6
					C549.8,697.7,545.1,526,545.1,526c-10.5-1.2-27.4-1.6-37.3-1.3C491.4,540.4,473.4,554.9,459,572.2z"/>
			</g>
		</g>
		<g>
			<path class="st5" d="M1257.8,539h-203.1c-18.2,0-32.9,14.7-32.9,32.9v329.8c0,18.2,14.7,32.9,32.9,32.9h203.1
				c18.2,0,32.9-14.7,32.9-32.9V571.9C1290.7,553.7,1276,539,1257.8,539z"/>
			<path class="st7" d="M1288.7,539h-215.8c-14.7,0-26.6,11.9-26.6,26.6V908c0,14.7,11.9,26.6,26.6,26.6h215.8
				c14.7,0,26.6-11.9,26.6-26.6V565.5C1315.3,550.9,1303.4,539,1288.7,539z"/>
			<path class="st11" d="M1085.7,700.3c-6.2-13.7-11-28.6-9.3-43.6c1.8-14.9,11.6-29.7,26.2-33.3c11.7-2.9,23.9,1.7,34.3,7.6
				c16.3,9.4,30.5,22.5,41,38c7.6-16.8,21-31.4,38.3-37.8s38.3-3.5,51.5,9.4c11.9,11.6,16.1,29.5,14,46
				c-2.1,16.5-9.7,31.8-18.5,45.9c-17.6,28.1-52.3,82.3-91.2,64.5C1134.1,779.7,1102.5,737.4,1085.7,700.3z"/>
			<g>
				<g>
					<rect x="1169.8" y="676.4" class="st0" width="18.8" height="89"/>
					
						<rect x="1169.8" y="676.4" transform="matrix(-1.836970e-16 1 -1 -1.836970e-16 1900.1051 -458.2703)" class="st0" width="18.8" height="89"/>
				</g>
			</g>
		</g>
		<g>
			<g>
				<g>
					
						<rect x="1044.3" y="961.7" transform="matrix(-1 -4.518265e-11 4.518265e-11 -1 2127.4612 2433.5222)" class="st3" width="38.8" height="510.2"/>
				</g>
				<g>
					
						<rect x="656.7" y="961.7" transform="matrix(-1 -4.452717e-11 4.452717e-11 -1 1352.1599 2433.5222)" class="st3" width="38.8" height="510.2"/>
				</g>
				<g>
					
						<rect x="1721.3" y="961.7" transform="matrix(-1 -4.438684e-11 4.438684e-11 -1 3481.4316 2433.5222)" class="st3" width="38.8" height="510.2"/>
				</g>
				<g>
					
						<rect x="1333.6" y="961.7" transform="matrix(-1 -4.513602e-11 4.513602e-11 -1 2706.1304 2433.5222)" class="st3" width="38.8" height="510.2"/>
				</g>
				<g>
					<g>
						
							<rect x="576.9" y="934.6" transform="matrix(-1 -4.487312e-11 4.487312e-11 -1 2397.572 1923.3181)" class="st2" width="1243.9" height="54.1"/>
					</g>
					<g>
						
							<rect x="576.9" y="934.6" transform="matrix(-1 -4.491664e-11 4.491664e-11 -1 1696.9834 1923.3181)" class="st12" width="543.3" height="54.1"/>
					</g>
				</g>
			</g>
		</g>
	</g>
</g>
</svg>
